<?xml version="1.0" encoding="utf-8"?>
<!-- Generator: Adobe Illustrator 24.3.0, SVG Export Plug-In . SVG Version: 6.00 Build 0)  -->
<svg version="1.1" id="Слой_1" xmlns="http://www.w3.org/2000/svg" xmlns:xlink="http://www.w3.org/1999/xlink" x="0px" y="0px"
	 viewBox="0 0 900 900" style="enable-background:new 0 0 900 900;" xml:space="preserve">
<g>
	<path d="M420.62,430.48c0-2.27,0-4.07,0-5.86c0-46.15-0.03-92.31,0.02-138.46c0.01-15.15,7.88-26.35,21.07-30.33
		c17.53-5.29,35.76,7.08,37.35,25.4c0.17,1.97,0.14,3.97,0.14,5.96c0.01,45.7,0.01,91.39,0.01,137.09c0,1.83,0,3.66,0,6.21
		c1.91,0,3.66,0,5.41,0c45.91,0,91.82,0.04,137.74-0.02c11.95-0.02,22,3.77,28.3,14.39c11.85,19.98-2.04,44.26-25.32,44.31
		c-46.67,0.09-93.35,0.03-140.02,0.03c-1.82,0-3.63,0-6.1,0c0,1.99,0,3.76,0,5.52c0,46.77,0.04,93.53-0.02,140.3
		c-0.02,17.56-12.93,30.55-29.82,30.28c-13.69-0.22-25.63-10.25-28.01-23.77c-0.55-3.14-0.69-6.38-0.7-9.58
		c-0.04-45.7-0.03-91.39-0.03-137.09c0-1.67,0-3.33,0-5.66c-1.98,0-3.74,0-5.5,0c-46.83,0-93.65,0.05-140.48-0.03
		c-20.73-0.03-34.66-19.44-27.88-38.93c3.58-10.28,11.06-16.65,21.73-18.88c3.25-0.68,6.66-0.82,10-0.82
		c45.3-0.05,90.6-0.03,135.91-0.03C416.23,430.48,418.06,430.48,420.62,430.48z"/>
</g>
</svg>
