<?xml version="1.0" encoding="utf-8"?>
<!-- Generator: Adobe Illustrator 24.3.0, SVG Export Plug-In . SVG Version: 6.00 Build 0)  -->
<svg version="1.1" id="Слой_1" xmlns="http://www.w3.org/2000/svg" xmlns:xlink="http://www.w3.org/1999/xlink" x="0px" y="0px"
	 viewBox="0 0 900 900" style="enable-background:new 0 0 900 900;" xml:space="preserve">
<g>
	<path d="M423.09,313.62c15.59,8.59,28.23,15.48,40.8,22.51c13.22,7.4,21.71,17.78,13.48,32.97c-8.39,15.48-21.19,13.08-34.66,5.69
		c-28.58-15.67-57.39-30.92-86.24-46.08c-14.69-7.72-18.66-17.97-10.37-33.06c16.73-30.46,32.98-61.18,49.39-91.82
		c7.27-13.56,18.12-18.21,31.71-10.57c13.2,7.42,12.66,19.28,6.62,31.38c-6.86,13.74-14.04,27.32-21.09,41
		c27.58,1.97,53.84,1.45,79.18,6.06c112.7,20.5,187.46,120.64,179.36,238.12c-7.12,103.15-100.36,194.82-204.09,200.64
		c-115.64,6.49-214.48-70.04-235.26-181.58c-6.65-35.67-4.36-70.54,5.74-105.13c4.61-15.77,13.4-29.4,31.47-23.17
		c16.84,5.8,14.62,20.9,10.25,35.99c-22.68,78.18,8.93,159.5,77.43,201.06c68.89,41.8,155.86,32.71,214.58-22.43
		c57.8-54.28,71.49-141.5,33.44-213.1C570.88,338.24,492.1,298.44,423.09,313.62z"/>
</g>
</svg>
